<svg width="45" height="45" viewBox="0 0 45 45" fill="none" xmlns="http://www.w3.org/2000/svg">
<circle cx="22.5" cy="22.5" r="21" stroke="white" stroke-width="3"/>
<g clip-path="url(#clip0_259_3)">
<path d="M22.5 22.5C24.546 22.5 26.5081 21.7888 27.9548 20.523C29.4015 19.2571 30.2143 17.5402 30.2143 15.75C30.2143 13.9598 29.4015 12.2429 27.9548 10.977C26.5081 9.71116 24.546 9 22.5 9C20.454 9 18.4919 9.71116 17.0452 10.977C15.5985 12.2429 14.7857 13.9598 14.7857 15.75C14.7857 17.5402 15.5985 19.2571 17.0452 20.523C18.4919 21.7888 20.454 22.5 22.5 22.5ZM19.7458 25.0312C13.8094 25.0312 9 29.2395 9 34.4338C9 35.2986 9.80156 36 10.79 36H34.21C35.1984 36 36 35.2986 36 34.4338C36 29.2395 31.1906 25.0312 25.2542 25.0312H19.7458Z" fill="white"/>
</g>
<defs>
<clipPath id="clip0_259_3">
<rect width="27" height="27" fill="white" transform="translate(9 9)"/>
</clipPath>
</defs>
</svg>
