<svg width="40" height="34" viewBox="0 0 40 34" fill="none" xmlns="http://www.w3.org/2000/svg">
<path d="M17.0234 5.48477L26.6172 14.5988C27.1797 15.1332 27.5 15.868 27.5 16.625C27.5 17.382 27.1797 18.1168 26.6172 18.6512L17.0234 27.7652C16.5234 28.2402 15.8516 28.5 15.1484 28.5C13.6875 28.5 12.5 27.3719 12.5 25.984V21.375H2.5C1.11719 21.375 0 20.3137 0 19V14.25C0 12.9363 1.11719 11.875 2.5 11.875H12.5V7.26602C12.5 5.87812 13.6875 4.75 15.1484 4.75C15.8516 4.75 16.5234 5.01719 17.0234 5.48477ZM27.5 28.5H32.5C33.8828 28.5 35 27.4387 35 26.125V7.125C35 5.81133 33.8828 4.75 32.5 4.75H27.5C26.1172 4.75 25 3.68867 25 2.375C25 1.06133 26.1172 0 27.5 0H32.5C36.6406 0 40 3.19141 40 7.125V26.125C40 30.0586 36.6406 33.25 32.5 33.25H27.5C26.1172 33.25 25 32.1887 25 30.875C25 29.5613 26.1172 28.5 27.5 28.5Z" fill="white"/>
</svg>
