<svg width="10" height="35" viewBox="0 0 10 35" fill="none" xmlns="http://www.w3.org/2000/svg">
<path d="M5 25.8281C3.83968 25.8281 2.72688 26.3006 1.90641 27.1416C1.08594 27.9826 0.625 29.1232 0.625 30.3125C0.625 31.5018 1.08594 32.6424 1.90641 33.4834C2.72688 34.3244 3.83968 34.7969 5 34.7969C6.16032 34.7969 7.27312 34.3244 8.09359 33.4834C8.91406 32.6424 9.375 31.5018 9.375 30.3125C9.375 29.1232 8.91406 27.9826 8.09359 27.1416C7.27312 26.3006 6.16032 25.8281 5 25.8281ZM5 13.0156C3.83968 13.0156 2.72688 13.4881 1.90641 14.3291C1.08594 15.1701 0.625 16.3107 0.625 17.5C0.625 18.6893 1.08594 19.8299 1.90641 20.6709C2.72688 21.5119 3.83968 21.9844 5 21.9844C6.16032 21.9844 7.27312 21.5119 8.09359 20.6709C8.91406 19.8299 9.375 18.6893 9.375 17.5C9.375 16.3107 8.91406 15.1701 8.09359 14.3291C7.27312 13.4881 6.16032 13.0156 5 13.0156ZM9.375 4.6875C9.375 3.49817 8.91406 2.35755 8.09359 1.51657C7.27312 0.675585 6.16032 0.203125 5 0.203125C3.83968 0.203125 2.72688 0.675585 1.90641 1.51657C1.08594 2.35755 0.625 3.49817 0.625 4.6875C0.625 5.87683 1.08594 7.01745 1.90641 7.85843C2.72688 8.69942 3.83968 9.17188 5 9.17188C6.16032 9.17188 7.27312 8.69942 8.09359 7.85843C8.91406 7.01745 9.375 5.87683 9.375 4.6875Z" fill="white"/>
</svg>
